<svg xmlns="http://www.w3.org/2000/svg" viewBox="0 0 815.6 142.9"><path d="M107.6 65.4c-.2-5.2-1.7-10.3-4.3-14.9L79.8 9.9c-1.8-3.1-3-6.4-3.7-9.9l-1 1.7c-5.8 10.1-5.8 22.5 0 32.6l18.8 32.6c5.8 10.1 5.8 22.5 0 32.6l-1 1.7c-.7-3.5-1.9-6.8-3.7-9.8L72 61.5l-11-19c-1.8-3.1-3-6.4-3.7-9.8l-1 1.7c-5.8 10-5.8 22.4-.1 32.5l18.9 32.6c5.8 10.1 5.8 22.5 0 32.6l-1 1.7c-.7-3.5-2-6.8-3.7-9.8L46.9 83.2c-3.1-5.4-4.6-11.5-4.3-17.7C17.4 72 0 86 0 102.2c0 22.5 33.6 40.7 75.1 40.7s75.1-18.2 75.1-40.7c0-16.2-17.4-30.2-42.6-36.8zm70.9 69.6c.2-4.9 1.1-9.7 2.7-14.2 8.1 3.6 16.9 5.4 25.8 5.5 13.1 0 20.4-4.2 20.4-12.6s-5.4-12-18.6-17.8l-7.2-3.1c-13.3-5.8-22.3-13.3-22.3-28.2 0-16.1 11.1-26.4 34-26.4 8.8-.1 17.5 1.3 25.8 4.1-.3 4.8-1.3 9.5-2.8 14.1-7.4-2.6-15.2-4-23.1-4.1-12.3 0-17.9 4.8-17.9 12.3s5.5 11.6 15.4 15.8l7.6 3.2c17.9 7.6 25.4 15.7 25.4 29.4 0 16.2-12.3 27.4-36.2 27.4-11.6 0-21.1-1.7-29-5.4zm141-67.4v70.5h-14.2l-.8-8.5c-4 6.2-10 10.1-19.9 10.1-18.6 0-31-13.5-31-37.2 0-24.8 13.3-38.9 39.4-38.9 10 0 18.3 1.1 26.5 4zM303.9 122V77.7c-3.7-.6-7.4-.9-11.1-.8-16.1 0-23.5 9.9-23.5 25.7 0 14.4 5.8 24.5 19.6 24.5 5.4 0 10.7-1.8 15-5.1zm95-31.3v47.4h-15.5V93.4c0-11.1-3.7-16.5-19.2-16.5-4.1.1-8.2.4-12.3 1.1v60.1h-15.5V67.6c9.9-2.4 20.7-3.9 28.2-3.9 25.9-.1 34.3 9.9 34.3 27zm43 35.8c4.1 0 8.2-.7 12.1-2.1-.4 4.2-1 9-1.8 13.1-4.2 1.6-8.6 2.3-13.1 2.2-15.1 0-24.7-6.9-24.7-24.1v-74c5-1.5 10.3-2.3 15.5-2.3V66h24.5c-.2 4.4-.7 8.9-1.4 13.3h-23.1v34.6c0 9.1 4.5 12.6 12 12.6zm83.2-59V138h-14.2l-.9-8.5c-4 6.2-10 10.1-19.9 10.1-18.6 0-31-13.5-31-37.2 0-24.8 13.3-38.9 39.4-38.9 10.1.1 18.4 1.2 26.6 4zM509.6 122V77.7c-3.7-.6-7.4-.9-11.1-.8-16.1 0-23.6 9.9-23.6 25.7 0 14.4 5.8 24.5 19.6 24.5 5.5 0 10.8-1.8 15.1-5.1zm94.9-31.3v47.4H589V93.4c0-11.1-3.7-16.5-19.2-16.5-4.1.1-8.2.4-12.2 1.1v60.1H542V67.6c9.9-2.4 20.7-3.9 28.2-3.9 26-.1 34.3 9.9 34.3 27zm78.7-51.4V138H669l-.8-9c-4 6.6-10 10.7-20.2 10.7-18.6 0-31-13.5-31-37.2 0-24.8 13.3-38.9 39.3-38.9 3.9 0 7.8.4 11.6 1.1V41.5c4.8-1.7 10.3-2.2 15.3-2.2zm-15.3 82.4V78.3c-4.1-.9-8.2-1.4-12.4-1.4-15.4 0-22.7 9.6-22.7 25.7 0 14.4 5.8 24.5 19.6 24.5 5.6 0 11.1-1.9 15.5-5.4zm93.4-13.8h-49.5c2 12.6 9.3 18.6 23.1 18.6 8.6 0 17-1.8 24.8-5.4-.6 4.1-1.4 9.5-2.4 14.1-7.1 3.2-14.5 4.5-22.8 4.5-26 0-38.5-14.4-38.5-38.5 0-21 9.7-37.7 34.4-37.7 22.1 0 31.7 14.5 31.7 32.3 0 4.1-.3 8.1-.8 12.1zm-49.8-13h35c0-11.6-6.2-18.3-16.9-18.3-11.1 0-16.9 6.3-18.1 18.3zm104.1-30.7c0 4.5-.4 8.9-1.4 13.3-3.9-.4-7.8-.6-11.7-.6-3.8 0-7.6.3-11.4.8v60.4h-15.5V67.6c6.6-2.2 17.8-3.9 26.5-3.9 4.4-.1 9 .1 13.5.5z" fill="#fff"/></svg>